<?xml version="1.0" encoding="utf-8"?>
<!-- Generator: Adobe Illustrator 21.1.0, SVG Export Plug-In . SVG Version: 6.00 Build 0)  -->
<svg version="1.1" id="Layer_1" xmlns="http://www.w3.org/2000/svg" xmlns:xlink="http://www.w3.org/1999/xlink" x="0px" y="0px"
	 viewBox="0 0 77 78" style="enable-background:new 0 0 77 78;" xml:space="preserve">
<style type="text/css">
	.st0{fill:#6E6E6E;}
	.st1{fill:#FDC02D;}
</style>
<title>logo 2</title>
<desc>Created with Sketch.</desc>
<path class="st0" d="M38.5,76.5C17.8,76.5,1,59.7,1,39S17.8,1.5,38.5,1.5S76,18.3,76,39S59.2,76.5,38.5,76.5z M38.5,2.3
	C18.2,2.3,1.8,18.7,1.8,39s16.4,36.7,36.7,36.7S75.2,59.3,75.2,39S58.8,2.3,38.5,2.3z M63.2,63.7c-6.6,6.6-15.3,10.2-24.7,10.2
	s-18.1-3.6-24.7-10.2C7.3,57.1,3.6,48.3,3.6,39s3.6-18.1,10.2-24.7C20.4,7.8,29.2,4.1,38.5,4.1s18.1,3.6,24.7,10.2
	S73.4,29.6,73.4,39S69.7,57.1,63.2,63.7z M60.9,59.3l1.6-2l1.1,0.9l-1.9,2.3l1,0.8l2.9-3.6l-5.2-4.1l-2.9,3.6l1,0.8l1.9-2.3l1.2,1
	l-1.6,2L60.9,59.3z M53.2,65l2.2-1.6l-0.6-0.9l-0.9,0.6l-0.6-0.8c0.1-0.3,0.3-0.5,0.6-0.8c0.4-0.3,0.8-0.3,1.2-0.2s0.8,0.5,1.1,1
	l0.2,0.3c0.4,0.5,0.5,1,0.6,1.4c0,0.4-0.1,0.7-0.5,1c-0.3,0.2-0.5,0.3-0.8,0.2c-0.2,0-0.5-0.2-0.7-0.4l-1.3,0.9
	c0.5,0.6,1,0.9,1.6,0.9s1.2-0.2,1.9-0.6c0.5-0.3,0.8-0.7,1-1.2s0.3-1,0.2-1.5s-0.3-1.1-0.7-1.6l-0.3-0.5c-0.6-0.8-1.2-1.2-2-1.4
	c-0.7-0.1-1.5,0-2.2,0.5c-0.5,0.3-0.8,0.7-1.1,1.1c-0.3,0.4-0.5,0.8-0.5,1.2L53.2,65z M44.3,67l1.3,4.2l1.5-0.5l-1.3-4.2
	c-0.1-0.4-0.1-0.7,0-0.9c0.1-0.2,0.3-0.4,0.6-0.5c0.6-0.2,1.1,0.1,1.3,0.8l1.3,4.2l1.5-0.5l-1.3-4.2C49,64.7,48.6,64.2,48,64
	c-0.6-0.3-1.2-0.3-2,0c-0.5,0.2-0.9,0.4-1.3,0.7c-0.3,0.3-0.5,0.6-0.6,1.1C44.1,66.1,44.1,66.5,44.3,67z M36.3,66.4h2.8l0.1,5.4h1.6
	l-0.1-6.7l-4.4,0.1L36.3,66.4z M28.5,70.3l1.4,0.4l4.2-5.7l-1.6-0.5l-0.7,1.1L29.7,65v-1.3L28,63.2L28.5,70.3z M23,68.1l0.7-1L22,66
	l2.9-4.6l-1.3-0.9l-2.9,4.6L19,64l-0.7,1L23,68.1z M12.5,58.6c0.1,0.5,0.3,1,0.7,1.4s0.8,0.7,1.3,0.9s1,0.2,1.5,0.1
	c0.5-0.1,1.1-0.4,1.6-0.8l0.3-0.2c0.5-0.4,0.8-0.9,1-1.4s0.3-1,0.2-1.5c-0.1-0.5-0.3-1-0.7-1.4c-0.4-0.4-0.8-0.7-1.3-0.9
	s-1-0.2-1.5,0c-0.5,0.1-1.1,0.4-1.6,0.8l-0.2,0.2c-0.5,0.4-0.8,0.9-1.1,1.4C12.5,57.6,12.5,58.1,12.5,58.6z M13.8,47.7l-0.6-1.6
	h-0.1l-2,2.3c-0.3-0.3-0.7-0.5-1-0.5c-0.4-0.1-0.7,0-1.2,0.2c-0.6,0.2-1,0.6-1.1,1.2c-0.2,0.5-0.1,1.2,0.2,1.9l1,2.4l6.2-2.5
	l-0.6-1.5l-2.2,0.9L12,49.7L13.8,47.7z M24.3,12.3l-2.2,1.4l-0.8-1.3l2.4-1.5l-0.6-1.1l-3.8,2.3l3.5,5.7l1.4-0.8l-1.4-2.3l2.2-1.4
	L24.3,12.3z M33.6,9.9l-0.1-0.3C33.3,9,33.1,8.5,32.7,8c-0.4-0.4-0.8-0.7-1.3-0.9c-0.5-0.2-1-0.2-1.6,0c-0.6,0.1-1,0.4-1.4,0.8
	c-0.4,0.4-0.6,0.8-0.7,1.4c-0.1,0.5-0.1,1.1,0.1,1.8l0.1,0.4c0.2,0.6,0.4,1.1,0.8,1.5s0.8,0.7,1.3,0.8s1,0.1,1.6,0
	c0.5-0.1,1-0.4,1.4-0.8c0.4-0.4,0.6-0.8,0.7-1.4C33.8,11.1,33.7,10.5,33.6,9.9z M42,7c-0.4-0.4-1-0.6-1.8-0.6l-2.6-0.2l-0.4,6.7
	l1.6,0.1l0.2-2.4l0.9,0.1l1,2.4l1.7,0.1v-0.1l-1.2-2.8c0.4-0.2,0.7-0.4,0.9-0.7s0.3-0.7,0.4-1.1C42.6,7.9,42.4,7.4,42,7z M47.3,7.6
	L45,13.8l4.3,1.6l0.4-1.2l-2.8-1l0.6-1.5l2.4,0.9l0.4-1.1l-2.4-0.9l0.5-1.3l2.8,1l0.4-1.2L47.3,7.6z M58.4,13.5l-2.2,1.1l0.5-2.4
	l-1.5-1.1l-0.5,3.8l-3.6,1.5l1.5,1.1l2.3-1.1l-0.5,2.5l1.5,1.1l0.5-3.8l3.5-1.5L58.4,13.5z M38.5,14.4c-13.6,0-24.6,11-24.6,24.6
	s11,24.6,24.6,24.6s24.6-11,24.6-24.6S52.1,14.4,38.5,14.4z M63.2,47.9l2.2,0.9L65,49.6l-2.6,0.2l-0.6,1.6h0.1l3-0.3
	c0,0.4,0.1,0.8,0.4,1.1c0.2,0.3,0.5,0.5,1,0.7c0.6,0.2,1.1,0.2,1.6-0.1s0.9-0.8,1.2-1.5l1-2.4l-6.2-2.5L63.2,47.9z M67.3,51.4
	c-0.2,0.1-0.4,0.1-0.7,0c-0.3-0.1-0.4-0.3-0.5-0.5s-0.1-0.4,0-0.7l0.4-0.9l1.7,0.7l-0.4,0.9C67.7,51.1,67.5,51.3,67.3,51.4z
	 M55.7,51.8c0.1-0.1,0.3-0.1,0.4,0l0.9,1c0.1,0.1,0.1,0.3,0,0.4c-0.1,0.1-0.3,0.1-0.4,0l-0.9-1C55.6,52.1,55.6,51.9,55.7,51.8z
	 M56.7,50.3c0.1-0.1,0.3-0.1,0.4,0l1,1c0.1,0.1,0.1,0.3,0,0.4c-0.1,0.1-0.3,0.1-0.4,0l-1-1C56.6,50.6,56.6,50.4,56.7,50.3z
	 M57.7,48.7c0.1-0.1,0.3-0.1,0.4,0l1,0.9c0.1,0.1,0.1,0.3,0,0.4c-0.1,0.1-0.3,0.1-0.4,0l-1-0.9C57.6,49,57.6,48.8,57.7,48.7z
	 M58.4,47c0.1-0.1,0.2-0.1,0.4-0.1l1.1,0.8C60,47.8,60,48,60,48.1c-0.1,0.1-0.2,0.1-0.4,0.1l-1.1-0.8C58.4,47.3,58.3,47.1,58.4,47z
	 M59,45.3c0.1-0.1,0.2-0.2,0.3-0.1l1.2,0.7c0.1,0.1,0.2,0.2,0.1,0.3c-0.1,0.1-0.2,0.2-0.3,0.1l-1.2-0.7C59,45.5,59,45.4,59,45.3z
	 M59.5,43.5c0.1-0.1,0.2-0.2,0.3-0.1L61,44c0.1,0.1,0.2,0.2,0.1,0.3c-0.1,0.1-0.2,0.2-0.3,0.1l-1.2-0.6
	C59.5,43.8,59.4,43.6,59.5,43.5z M59.8,41.7c0-0.1,0.2-0.2,0.3-0.2l1.3,0.5c0.1,0,0.2,0.2,0.2,0.3s-0.2,0.2-0.3,0.2L60,42
	C59.8,41.9,59.8,41.8,59.8,41.7z M60.1,40.1c-0.1,0-0.2-0.2-0.2-0.3s0.2-0.2,0.3-0.2l1.3,0.4c0.1,0,0.2,0.2,0.2,0.3
	s-0.2,0.2-0.3,0.2L60.1,40.1z M61.5,38.5l-1.3-0.2c-0.1,0-0.2-0.2-0.2-0.3s0.2-0.2,0.3-0.2l1.3,0.2c0.1,0,0.2,0.2,0.2,0.3
	C61.7,38.4,61.6,38.5,61.5,38.5z M61.3,36.5L60,36.4c-0.1,0-0.2-0.1-0.2-0.3c0-0.1,0.1-0.2,0.3-0.2l1.4,0.1c0.1,0,0.2,0.1,0.2,0.3
	C61.6,36.4,61.5,36.5,61.3,36.5z M61,34.6h-1.4c-0.1,0-0.3-0.1-0.3-0.3c0-0.1,0.1-0.3,0.3-0.3H61c0.1,0,0.3,0.1,0.3,0.3
	C61.3,34.4,61.2,34.6,61,34.6z M60.5,32.6l-1.4,0.1c-0.1,0-0.3-0.1-0.3-0.2c0-0.1,0.1-0.3,0.2-0.3l1.4-0.1c0.1,0,0.3,0.1,0.3,0.2
	C60.8,32.5,60.7,32.6,60.5,32.6z M59.9,30.8L58.6,31c-0.1,0-0.3-0.1-0.3-0.2s0.1-0.3,0.2-0.3l1.3-0.2c0.1,0,0.3,0.1,0.3,0.2
	S60,30.7,59.9,30.8z M59.1,28.9l-1.3,0.4c-0.1,0-0.3,0-0.3-0.2c0-0.1,0-0.3,0.2-0.3l1.3-0.4c0.1,0,0.3,0,0.3,0.2
	C59.3,28.8,59.2,28.9,59.1,28.9z M58.1,27.2l-1.3,0.5c-0.1,0-0.3,0-0.3-0.2c0-0.1,0-0.3,0.2-0.3l1.3-0.5c0.1,0,0.3,0,0.3,0.2
	C58.3,27,58.3,27.2,58.1,27.2z M55.8,26.1c-0.1,0.1-0.3,0-0.3-0.1c-0.1-0.1,0-0.3,0.1-0.3l1.2-0.6c0.1-0.1,0.3,0,0.3,0.1
	c0.1,0.1,0,0.3-0.1,0.3L55.8,26.1z M54.6,24.7c-0.1,0.1-0.3,0-0.3-0.1c-0.1-0.1,0-0.3,0.1-0.3l1.2-0.7c0.1-0.1,0.3,0,0.3,0.1
	c0.1,0.1,0,0.3-0.1,0.3L54.6,24.7z M53.3,23.4c-0.1,0.1-0.3,0.1-0.4-0.1c-0.1-0.1,0-0.3,0.1-0.3l1.1-0.8c0.1-0.1,0.3-0.1,0.4,0.1
	c0.1,0.1,0.1,0.3-0.1,0.4L53.3,23.4z M51.9,22.2c-0.1,0.1-0.3,0.1-0.4,0c-0.1-0.1-0.1-0.3,0-0.4l1-0.9c0.1-0.1,0.3-0.1,0.4,0
	c0.1,0.1,0.1,0.3,0,0.4L51.9,22.2z M50.3,21.1c-0.1,0.1-0.3,0.1-0.4,0c-0.1-0.1-0.1-0.3,0-0.4l1-1c0.1-0.1,0.3-0.1,0.4,0
	c0.1,0.1,0.1,0.3,0,0.4L50.3,21.1z M48.7,20.2c-0.1,0.1-0.3,0.1-0.4,0c-0.1-0.1-0.1-0.3,0-0.4l0.9-1c0.1-0.1,0.3-0.1,0.4,0
	c0.1,0.1,0.1,0.3,0,0.4L48.7,20.2z M47,19.4c-0.1,0.1-0.2,0.1-0.4,0.1c-0.1-0.1-0.1-0.2-0.1-0.4l0.8-1.1c0.1-0.1,0.2-0.1,0.4-0.1
	c0.1,0.1,0.1,0.2,0.1,0.4L47,19.4z M45.3,18.7c-0.1,0.1-0.2,0.2-0.3,0.1s-0.2-0.2-0.1-0.3l0.7-1.2c0.1-0.1,0.2-0.2,0.3-0.1
	s0.2,0.2,0.1,0.3L45.3,18.7z M43.5,18.2c-0.1,0.1-0.2,0.2-0.3,0.1C43,18.3,43,18.1,43,18l0.6-1.2c0.1-0.1,0.2-0.2,0.3-0.1
	s0.2,0.2,0.1,0.3L43.5,18.2z M41.3,18c-0.1,0-0.2-0.2-0.2-0.3l0.5-1.3c0-0.1,0.2-0.2,0.3-0.2s0.2,0.2,0.2,0.3l-0.5,1.3
	C41.6,18,41.5,18.1,41.3,18z M39.5,17.9c-0.1,0-0.2-0.2-0.2-0.3l0.4-1.3c0-0.1,0.2-0.2,0.3-0.2s0.2,0.2,0.2,0.3l-0.4,1.3
	C39.8,17.9,39.6,17.9,39.5,17.9z M39.9,60.3c0.1,0,0.2,0.2,0.2,0.3l-0.2,1.3c0,0.1-0.2,0.2-0.3,0.2s-0.2-0.2-0.2-0.3l0.2-1.3
	C39.6,60.3,39.7,60.2,39.9,60.3z M41.7,60.1c0.1,0,0.2,0.1,0.2,0.3l-0.1,1.4c0,0.1-0.1,0.2-0.3,0.2s-0.2-0.1-0.2-0.3l0.1-1.4
	C41.5,60.2,41.6,60.1,41.7,60.1z M43.5,59.7c0.1,0,0.3,0.1,0.3,0.3v1.4c0,0.1-0.1,0.3-0.3,0.3s-0.3-0.1-0.3-0.3V60
	C43.3,59.9,43.4,59.7,43.5,59.7z M45.3,59.2c0.1,0,0.3,0.1,0.3,0.2l0.1,1.4c0,0.1-0.1,0.3-0.2,0.3c-0.1,0-0.3-0.1-0.3-0.2l-0.1-1.4
	C45.1,59.4,45.2,59.3,45.3,59.2z M47.1,58.6c0.1,0,0.3,0.1,0.3,0.2l0.2,1.3c0,0.1-0.1,0.3-0.2,0.3c-0.1,0-0.3-0.1-0.3-0.2l-0.2-1.3
	C46.8,58.8,46.9,58.6,47.1,58.6z M48.7,57.8c0.1,0,0.3,0,0.3,0.2l0.4,1.3c0,0.1,0,0.3-0.2,0.3c-0.1,0-0.3,0-0.3-0.2l-0.4-1.3
	C48.5,58,48.6,57.8,48.7,57.8z M50.3,56.9c0.1,0,0.3,0,0.3,0.2l0.5,1.3c0,0.1,0,0.3-0.2,0.3c-0.1,0-0.3,0-0.3-0.2l-0.5-1.3
	C50.1,57.1,50.2,56.9,50.3,56.9z M52.2,55.9l0.6,1.2c0.1,0.1,0,0.3-0.1,0.3c-0.1,0.1-0.3,0-0.3-0.1l-0.6-1.2c-0.1-0.1,0-0.3,0.1-0.3
	C51.9,55.7,52.1,55.8,52.2,55.9z M53.6,54.7l0.7,1.2c0.1,0.1,0,0.3-0.1,0.3c-0.1,0.1-0.3,0-0.3-0.1l-0.7-1.2c-0.1-0.1,0-0.3,0.1-0.3
	C53.3,54.5,53.5,54.6,53.6,54.7z M54.9,53.3l0.8,1.1c0.1,0.1,0.1,0.3-0.1,0.4c-0.1,0.1-0.3,0.1-0.4-0.1l-0.8-1.1
	c-0.1-0.1-0.1-0.3,0.1-0.4C54.6,53.2,54.8,53.2,54.9,53.3z M37.5,62.1c-0.1,0-0.2-0.2-0.2-0.3l0.4-1.3c0-0.1,0.2-0.2,0.3-0.2
	s0.2,0.2,0.2,0.3l-0.4,1.3C37.8,62,37.7,62.1,37.5,62.1z M37.6,17.9c-0.1,0-0.2-0.2-0.2-0.3l0.2-1.3c0-0.1,0.2-0.2,0.3-0.2
	s0.2,0.2,0.2,0.3l-0.2,1.3C37.9,17.8,37.8,17.9,37.6,17.9z M35.5,61.9c-0.1,0-0.2-0.2-0.2-0.3l0.5-1.3c0-0.1,0.2-0.2,0.3-0.2
	s0.2,0.2,0.2,0.3l-0.5,1.3C35.8,61.9,35.7,61.9,35.5,61.9z M35.8,18.1c-0.1,0-0.2-0.1-0.2-0.3l0.1-1.4c0-0.1,0.1-0.2,0.3-0.2
	c0.1,0,0.2,0.1,0.2,0.3l-0.1,1.4C36,18,35.9,18.1,35.8,18.1z M33.9,61.4c-0.1,0.1-0.2,0.2-0.3,0.1c-0.1-0.1-0.2-0.2-0.1-0.3L34,60
	c0.1-0.1,0.2-0.2,0.3-0.1c0.1,0.1,0.2,0.2,0.1,0.3L33.9,61.4z M34,18.4c-0.1,0-0.3-0.1-0.3-0.3v-1.4c0-0.1,0.1-0.3,0.3-0.3
	c0.1,0,0.3,0.1,0.3,0.3v1.4C34.2,18.3,34.1,18.4,34,18.4z M32,60.9c-0.1,0.1-0.2,0.2-0.3,0.1c-0.1-0.1-0.2-0.2-0.1-0.3l0.7-1.2
	c0.1-0.1,0.2-0.2,0.3-0.1c0.1,0.1,0.2,0.2,0.1,0.3L32,60.9z M32.2,18.9c-0.1,0-0.3-0.1-0.3-0.2l-0.1-1.4c0-0.1,0.1-0.3,0.2-0.3
	s0.3,0.1,0.3,0.2l0.1,1.4C32.4,18.8,32.3,18.9,32.2,18.9z M30.1,60.2c-0.1,0.1-0.2,0.1-0.4,0.1c-0.1-0.1-0.1-0.2-0.1-0.4l0.8-1.1
	c0.1-0.1,0.2-0.1,0.4-0.1c0.1,0.1,0.1,0.2,0.1,0.4L30.1,60.2z M30.5,19.6c-0.1,0-0.3-0.1-0.3-0.2L29.9,18c0-0.1,0.1-0.3,0.2-0.3
	s0.3,0.1,0.3,0.2l0.2,1.3C30.7,19.4,30.6,19.6,30.5,19.6z M28.3,59.4c-0.1,0.1-0.3,0.1-0.4,0s-0.1-0.3,0-0.4l0.9-1
	c0.1-0.1,0.3-0.1,0.4,0s0.1,0.3,0,0.4L28.3,59.4z M28.8,20.4c-0.1,0-0.3,0-0.3-0.2l-0.4-1.3c0-0.1,0-0.3,0.2-0.3
	c0.1,0,0.3,0,0.3,0.2l0.4,1.3C29,20.2,28.9,20.3,28.8,20.4z M26.6,58.4c-0.1,0.1-0.3,0.1-0.4,0s-0.1-0.3,0-0.4l1-1
	c0.1-0.1,0.3-0.1,0.4,0s0.1,0.3,0,0.4L26.6,58.4z M27.2,21.3c-0.1,0-0.3,0-0.3-0.2l-0.5-1.3c0-0.1,0-0.3,0.2-0.3
	c0.1,0,0.3,0,0.3,0.2l0.5,1.3C27.4,21.1,27.3,21.3,27.2,21.3z M24.9,57.3c-0.1,0.1-0.3,0.1-0.4,0s-0.1-0.3,0-0.4l1-0.9
	c0.1-0.1,0.3-0.1,0.4,0s0.1,0.3,0,0.4L24.9,57.3z M25.3,22.3L24.8,21c-0.1-0.1,0-0.3,0.1-0.3c0.1-0.1,0.3,0,0.3,0.1l0.6,1.2
	c0.1,0.1,0,0.3-0.1,0.3C25.6,22.4,25.4,22.4,25.3,22.3z M23.4,56c-0.1,0.1-0.3,0.1-0.4-0.1c-0.1-0.1-0.1-0.3,0.1-0.4l1.1-0.8
	c0.1-0.1,0.3-0.1,0.4,0.1c0.1,0.1,0.1,0.3-0.1,0.4L23.4,56z M23.9,23.5l-0.7-1.2c-0.1-0.1,0-0.3,0.1-0.3c0.1-0.1,0.3,0,0.3,0.1
	l0.7,1.2c0.1,0.1,0,0.3-0.1,0.3C24.2,23.7,24,23.6,23.9,23.5z M23.2,53.9L22,54.6c-0.1,0.1-0.3,0-0.3-0.1c-0.1-0.1,0-0.3,0.1-0.3
	l1.2-0.7c0.1-0.1,0.3,0,0.3,0.1C23.3,53.7,23.3,53.8,23.2,53.9z M22.6,24.9l-0.8-1.1c-0.1-0.1-0.1-0.3,0.1-0.4
	c0.1-0.1,0.3-0.1,0.4,0.1l0.8,1.1c0.1,0.1,0.1,0.3-0.1,0.4S22.7,25,22.6,24.9z M21.8,26.3c-0.1,0.1-0.3,0.1-0.4,0l-0.9-1
	c-0.1-0.1-0.1-0.3,0-0.4s0.3-0.1,0.4,0l0.9,1C21.9,26.1,21.9,26.3,21.8,26.3z M20.8,27.9c-0.1,0.1-0.3,0.1-0.4,0l-1-1
	c-0.1-0.1-0.1-0.3,0-0.4s0.3-0.1,0.4,0l1,1C20.9,27.6,20.9,27.8,20.8,27.9z M19.9,29.5c-0.1,0.1-0.3,0.1-0.4,0l-1-0.9
	c-0.1-0.1-0.1-0.3,0-0.4s0.3-0.1,0.4,0l1,0.9C19.9,29.2,19.9,29.4,19.9,29.5z M19.1,31.2c-0.1,0.1-0.2,0.1-0.4,0.1l-1.1-0.8
	c-0.1-0.1-0.1-0.2-0.1-0.4c0.1-0.1,0.2-0.1,0.4-0.1l1.1,0.8C19.1,30.9,19.2,31,19.1,31.2z M18.5,32.9c-0.1,0.1-0.2,0.2-0.3,0.1
	L17,32.3c-0.1-0.1-0.2-0.2-0.1-0.3c0.1-0.1,0.2-0.2,0.3-0.1l1.2,0.7C18.5,32.6,18.5,32.8,18.5,32.9z M18,34.7
	c-0.1,0.1-0.2,0.2-0.3,0.1l-1.2-0.6c-0.1-0.1-0.2-0.2-0.1-0.3s0.2-0.2,0.3-0.1l1.2,0.6C18,34.4,18.1,34.6,18,34.7z M17.7,36.5
	c0,0.1-0.2,0.2-0.3,0.2l-1.3-0.5c-0.1,0-0.2-0.2-0.2-0.3s0.2-0.2,0.3-0.2l1.3,0.5C17.7,36.2,17.8,36.4,17.7,36.5z M17.4,38.1
	c0.1,0,0.2,0.2,0.2,0.3s-0.2,0.2-0.3,0.2L16,38.2c-0.1,0-0.2-0.2-0.2-0.3s0.2-0.2,0.3-0.2L17.4,38.1z M16,39.7l1.3,0.2
	c0.1,0,0.2,0.2,0.2,0.3s-0.2,0.2-0.3,0.2l-1.3-0.2c-0.1,0-0.2-0.2-0.2-0.3C15.8,39.8,15.9,39.7,16,39.7z M16.2,41.7l1.4,0.1
	c0.1,0,0.2,0.1,0.2,0.3c0,0.1-0.1,0.2-0.3,0.2l-1.4-0.1c-0.1,0-0.2-0.1-0.2-0.3C15.9,41.8,16,41.6,16.2,41.7z M16.5,43.6h1.4
	c0.1,0,0.3,0.1,0.3,0.3c0,0.1-0.1,0.3-0.3,0.3h-1.4c-0.1,0-0.3-0.1-0.3-0.3C16.2,43.7,16.3,43.6,16.5,43.6z M17,45.5l1.4-0.1
	c0.1,0,0.3,0.1,0.3,0.2c0,0.1-0.1,0.3-0.2,0.3L17,46.1c-0.1,0-0.3-0.1-0.3-0.2C16.7,45.7,16.8,45.6,17,45.5z M17.6,47.4l1.3-0.2
	c0.1,0,0.3,0.1,0.3,0.2c0,0.1-0.1,0.3-0.2,0.3l-1.3,0.2c-0.1,0-0.3-0.1-0.3-0.2S17.5,47.4,17.6,47.4z M18.4,49.2l1.3-0.4
	c0.1,0,0.3,0,0.3,0.2c0,0.1,0,0.3-0.2,0.3l-1.3,0.4c-0.1,0-0.3,0-0.3-0.2C18.2,49.4,18.3,49.3,18.4,49.2z M19.4,51l1.3-0.5
	c0.1,0,0.3,0,0.3,0.2c0,0.1,0,0.3-0.2,0.3l-1.3,0.5c-0.1,0-0.3,0-0.3-0.2C19.2,51.2,19.2,51,19.4,51z M21.7,52
	c0.1-0.1,0.3,0,0.3,0.1c0.1,0.1,0,0.3-0.1,0.3L20.7,53c-0.1,0.1-0.3,0-0.3-0.1c-0.1-0.1,0-0.3,0.1-0.3L21.7,52z M40,9.4l-1-0.1
	l0.1-1.8l1,0.1c0.3,0,0.5,0.1,0.7,0.3C40.9,8.1,41,8.3,41,8.6s-0.1,0.5-0.3,0.7C40.5,9.4,40.3,9.4,40,9.4z M31.3,12.6
	c-0.4,0.1-0.8,0-1.1-0.3c-0.3-0.3-0.5-0.7-0.7-1.4l-0.1-0.5c-0.3-1.2,0-1.9,0.8-2.1c0.4-0.1,0.7,0,1,0.3s0.5,0.7,0.7,1.4l0.1,0.3
	c0.2,0.6,0.2,1.1,0,1.5C31.9,12.3,31.7,12.5,31.3,12.6z M9.1,50.7C9,50.4,9,50.2,9.1,50s0.3-0.4,0.5-0.5c0.3-0.1,0.5-0.1,0.7,0
	s0.4,0.3,0.5,0.5l0.4,0.9l-1.7,0.7L9.1,50.7z M14.9,57l0.2-0.2c0.5-0.4,1-0.6,1.4-0.7c0.4-0.1,0.7,0.1,1,0.4
	c0.3,0.3,0.3,0.7,0.2,1.1s-0.4,0.8-0.9,1.2l-0.4,0.3c-1,0.7-1.7,0.8-2.2,0.2c-0.3-0.3-0.3-0.7-0.2-1.1C14.1,57.8,14.4,57.4,14.9,57z
	 M29.7,68.7v-2.4l1.4,0.4L29.7,68.7z"/>
<g id="logo-2" transform="translate(119.000000, 60.000000)">
	<path class="st1" d="M-64.4-32.6c2.7,0.9,4.7,2.4,7,3.3c2.3,1,6,0.1,6-0.1s-1.6-0.6-3.9-1.8c-2.3-1.3-3.3-3-8.4-4.4
		c-4.4-1.2-7.8-0.7-9.6,0.4c-1.8,1.2-1.4,3.4-0.7,2.9l1-0.5c0,0,0.7,2-0.5,3.8c-1,1.4-3.1,1.5-4,1.5c-0.4-2.8-1-5.4-1.4-6.1
		c-0.8-1.7-1.6-1.9-1.6-1.9c-0.4-0.2-1.6-0.2-1.9,0.7c0,0-0.5-0.4-1.3-0.4c-1,0-1.8,1.7-1.6,1.9c0.2,0.2,0.7-0.5,1.4-0.3
		c0.7,0.2,1.7,2.2,1.7,2.2l0,0c0,0.4,0,0.8-0.1,1.2c-0.2,0.9-0.5,1.6-0.9,2.7c-0.6,0-3.2,0.1-4.3-1.5c-1.2-1.8-0.5-3.8-0.5-3.8
		l1,0.5c0.7,0.5,1.1-1.8-0.7-2.9c-1.7-1.1-5.2-1.6-9.6-0.4c-5.1,1.4-6.1,3.2-8.4,4.4c-2.3,1.3-3.9,1.6-3.9,1.8c0,0.2,3.7,1,6,0.1
		c2.3-1,4.2-2.4,7-3.3c2.7-0.9,6.4-0.3,6.4-0.3s-0.2,0.3-0.4,0.9c-1.3,0-4.2,0.2-6.6,1.2c-3.3,1.4-6.1,3.6-7.5,4.2
		c-1.5,0.7-2.3,0.7-2.3,0.9c0,0.2,2,1.5,5.4,0.4c2.5-0.8,4.1-2,6.8-3.2c1.4-0.6,2.9-1,3.8-1.2c0,0.3,0,0.6,0,0.9
		c-0.6,0.3-1.5,0.7-2.6,1.4c-1.9,1.2-4.4,3.3-6.6,4.2c-2.2,0.8-3.7,0.6-3.7,0.8c0,0.2,4,2,8.4-0.2c2.7-1.4,4.5-2.8,5.4-3.6
		c0.2,0.4,0.5,0.7,0.8,1c-1,1.1-2.7,2.8-3.9,3.8c-1.8,1.4-4.6,2.2-4.6,2.6c0,0.3,2.1,0.9,5.5-0.8c1.9-0.9,3.7-3,4.6-4.2
		c0.3,0.2,0.6,0.4,0.9,0.6c-0.4,0.7-0.9,1.5-1.4,2.2c-1.1,1.3-2.9,3-2.7,3.2c0.2,0.1,2.6-0.1,4.3-1.7c0.8-0.8,1.4-1.8,1.8-2.7
		c0.2,0.1,0.4,0.2,0.5,0.2c0,1.2,0.1,2.2,0.2,2.8c0,0,0,0,0,0.1c-0.2,0.3-0.4,0.6-0.9,0.8c-0.8,0.4-1.1,0-2.3,0.4
		c-1.1,0.4-1.4,1.2-1.4,1.2c0.9-0.2,1.2,0.4,1.3,1l-2.3,1.8c0,0-2-0.8-2.4-0.8c-0.1,0-0.3,0-0.4,0.1c-0.1,0-0.2,0-0.4,0
		c-0.3,0.1-0.3,0.5-0.3,0.5s0.2-0.1,0.4-0.1h0.1c0,0.1,0.1,0.2,0.3,0.3c0.6,0.2,2.2,0.5,2.2,0.5s-2.6,0.3-2.8,0.3
		c-0.1,0-0.2,0.1-0.2,0.2c-0.1,0-0.2,0-0.2,0.1c-0.3,0.2-0.1,0.5-0.1,0.5s0.2-0.2,0.3-0.2l0,0c0,0.1,0.1,0.2,0.3,0.3
		c0.4,0,2.6-0.7,2.6-0.7s-2,1.2-2.3,1.6c-0.1,0.1,0,0.3,0.1,0.4c0,0-0.1,0.1-0.1,0.2c-0.1,0.3,0.2,0.5,0.2,0.5s0-0.2,0.1-0.4
		c0,0,0,0,0.1-0.1c0.2,0.1,0.5,0.1,0.6-0.1c0.1-0.2,1-1,2.1-2c0,0.4,0.1,1.1,0.2,1.4c0.1,0.2,0.2,0.2,0.3,0.3l0,0
		c0,0.1-0.1,0.3-0.1,0.3s0.4,0,0.5-0.3c0-0.1,0-0.1,0-0.2c0.1-0.1,0.2-0.2,0.1-0.4c-0.1-0.4-0.5-1.3-0.6-1.6c0.7-0.7,1.5-1.3,2-1.8
		c0.6,0.2,1.1,0.9,0.8,1.5c0,0,0.9,0,1.6-1.1c0.6-1,0.3-1.2,0.7-1.8c0.2-0.3,0.4-0.5,0.6-0.7c0.3,0.5,0.5,0.9,0.8,1.2l-3.1,5.6
		l0.6,3.8l3-9c0.1,0.1,0.2,0.2,0.3,0.2l-2.9,9.6c0,0,0.5,0.2,0.9,0.6S-83-3.9-83-3.9l1.7-11.2c0.1,0,0.1,0.1,0.2,0.1l-1.2,11.5
		c0,0,0.5,0,0.9,0.4s0.3,1.6,0.8,1.6s0.4-1.2,0.8-1.6s0.9-0.4,0.9-0.4L-80-15.1c0.1,0,0.1,0,0.2-0.1L-78.1-4c0,0,0.5-0.9,0.8-1.3
		c0.4-0.4,0.9-0.6,0.9-0.6l-2.9-9.6c0.1-0.1,0.2-0.1,0.3-0.2l2.9,8.9l0.6-3.8l-3.1-5.5c0.3-0.3,0.6-0.7,0.8-1.2
		c0.2,0.2,0.5,0.5,0.6,0.7c0.4,0.6,0,0.8,0.7,1.8c0.6,1.1,1.6,1.1,1.6,1.1c-0.3-0.6,0.2-1.4,0.8-1.5c0.5,0.5,1.3,1.1,2,1.8
		c-0.2,0.3-0.5,1.2-0.6,1.6c0,0.2,0.1,0.3,0.2,0.4c0,0.1,0,0.1,0,0.2c0.1,0.3,0.5,0.3,0.5,0.3s-0.1-0.2-0.1-0.3l0,0
		c0.1,0,0.2-0.1,0.3-0.2c0.1-0.4,0.2-1,0.2-1.4c1,0.9,1.9,1.8,2.1,2s0.4,0.2,0.7,0.1c0,0,0,0.1,0.1,0.1c0.1,0.1,0.1,0.4,0.1,0.4
		s0.3-0.2,0.2-0.5c0-0.1-0.1-0.1-0.1-0.2c0.1-0.1,0.1-0.2,0.1-0.4c-0.2-0.4-2.3-1.6-2.3-1.6s2.1,0.7,2.6,0.7c0.2,0,0.2-0.1,0.3-0.3
		l0,0c0.1,0.1,0.3,0.2,0.3,0.2s0.1-0.3-0.1-0.5c-0.1,0-0.2-0.1-0.2-0.1c-0.1-0.1-0.1-0.2-0.2-0.2c-0.3,0-2.8-0.3-2.8-0.3
		s1.6-0.3,2.2-0.5c0.2-0.1,0.3-0.2,0.3-0.3h0.1c0.1,0,0.4,0.1,0.4,0.1s0-0.4-0.3-0.5c-0.1,0-0.3,0-0.4,0c-0.1-0.1-0.2-0.1-0.4-0.1
		c-0.4,0-2.4,0.8-2.4,0.8l-2.3-1.8c0.1-0.6,0.4-1.2,1.3-1c0,0-0.3-0.8-1.4-1.2c-1.1-0.4-1.5,0-2.3-0.4c-0.4-0.2-0.7-0.5-0.9-0.8
		c0,0,0,0,0-0.1c0.1-0.7,0.2-1.7,0.1-2.7c0.1,0,0.3-0.1,0.6-0.3c0.4,0.8,1,1.9,1.8,2.7c1.7,1.6,4.1,1.8,4.3,1.7
		c0.2-0.1-1.6-1.8-2.7-3.2c-0.5-0.7-1.1-1.5-1.4-2.2c0.3-0.2,0.6-0.4,0.9-0.6c0.9,1.2,2.7,3.3,4.6,4.2c3.4,1.6,5.5,1,5.5,0.8
		c0-0.4-2.7-1.2-4.6-2.6c-1.2-1-2.9-2.7-3.9-3.8c0.3-0.3,0.6-0.6,0.8-1c0.9,0.8,2.7,2.3,5.4,3.6c4.4,2.2,8.4,0.4,8.4,0.2
		c0-0.2-1.4,0-3.7-0.8c-2.2-0.8-4.7-2.9-6.6-4.2c-1.1-0.7-2-1.2-2.6-1.4c0-0.3,0-0.6,0-0.9c0.9,0.2,2.4,0.6,3.8,1.2
		c2.7,1.1,4.2,2.3,6.8,3.2c3.5,1.1,5.4-0.2,5.4-0.4c0-0.2-0.7-0.2-2.3-0.9c-1.4-0.7-4.3-2.8-7.5-4.2c-2.4-1-5.4-1.2-6.6-1.2
		c-0.2-0.6-0.4-0.9-0.4-0.9S-67.1-33.5-64.4-32.6z M-79.6-33.4c-0.1,0-0.6-0.2-0.6-0.2s-0.4,0.6-0.9,0.4c-0.5-0.2-0.5-1.1-0.5-1.1
		s-0.1-0.1-0.2-0.1c0,0-0.1-0.3,0-0.3c0,0,0,0.2,0.2,0.3S-79.7-33.4-79.6-33.4c0.1,0,0.3-0.1,0.3-0.1L-79.6-33.4z"/>
</g>
</svg>
